<svg xmlns="http://www.w3.org/2000/svg" viewBox="0 0 120 120">
  <defs>
    <linearGradient id="portal-bg" x1="0" y1="0" x2="0" y2="1">
      <stop offset="0%" stop-color="#4a1942"/>
      <stop offset="100%" stop-color="#1a0a1e"/>
    </linearGradient>
    <radialGradient id="portal-glow" cx="50%" cy="46%" r="40%">
      <stop offset="0%" stop-color="#fce7f3" stop-opacity="0.4"/>
      <stop offset="40%" stop-color="#f472b6" stop-opacity="0.2"/>
      <stop offset="100%" stop-color="#831843" stop-opacity="0"/>
    </radialGradient>
  </defs>
  <rect width="120" height="120" rx="12" fill="url(#portal-bg)"/>
  <!-- Background glow -->
  <circle cx="60" cy="50" r="40" fill="url(#portal-glow)"/>
  <!-- Outer swirl rings -->
  <ellipse cx="60" cy="50" rx="36" ry="34" fill="none" stroke="#f472b6" stroke-width="1.5" opacity="0.3"/>
  <ellipse cx="60" cy="50" rx="30" ry="28" fill="none" stroke="#f472b6" stroke-width="1.5" opacity="0.45"/>
  <ellipse cx="60" cy="50" rx="23" ry="22" fill="none" stroke="#f9a8d4" stroke-width="1.5" opacity="0.55"/>
  <ellipse cx="60" cy="50" rx="16" ry="15" fill="none" stroke="#f9a8d4" stroke-width="2" opacity="0.7"/>
  <ellipse cx="60" cy="50" rx="9" ry="8" fill="none" stroke="#fbcfe8" stroke-width="2" opacity="0.85"/>
  <!-- Swirl arms -->
  <path d="M60 16 Q80 20 90 40 Q94 58 80 72" fill="none" stroke="#f472b6" stroke-width="1.5" opacity="0.4" stroke-linecap="round"/>
  <path d="M60 84 Q40 80 30 60 Q26 42 40 28" fill="none" stroke="#f472b6" stroke-width="1.5" opacity="0.4" stroke-linecap="round"/>
  <path d="M28 36 Q32 22 50 18" fill="none" stroke="#ec4899" stroke-width="1" opacity="0.3" stroke-linecap="round"/>
  <path d="M92 64 Q88 78 70 82" fill="none" stroke="#ec4899" stroke-width="1" opacity="0.3" stroke-linecap="round"/>
  <!-- Center bright spot -->
  <circle cx="60" cy="50" r="4" fill="#fce7f3" opacity="0.9"/>
  <circle cx="60" cy="50" r="2" fill="#fff" opacity="0.8"/>
  <!-- Energy particles -->
  <circle cx="42" cy="30" r="1.5" fill="#f9a8d4" opacity="0.7"/>
  <circle cx="78" cy="68" r="1.5" fill="#f9a8d4" opacity="0.7"/>
  <circle cx="36" cy="60" r="1" fill="#fbcfe8" opacity="0.5"/>
  <circle cx="82" cy="38" r="1" fill="#fbcfe8" opacity="0.5"/>
  <circle cx="50" cy="74" r="1.2" fill="#f472b6" opacity="0.4"/>
  <circle cx="72" cy="26" r="1.2" fill="#f472b6" opacity="0.4"/>
  <!-- Label -->
  <text x="60" y="102" text-anchor="middle" font-family="serif" font-size="13" font-weight="bold" fill="#f472b6">PORTAL</text>
</svg>